{
  "accessors": [
    {
      "bufferView": 2,
      "componentType": 5126,
      "count": 892,
      "max": [
        1.8739004135131836,
        0.6917944550514221,
        1.1803258657455444
      ],
      "min": [
        0.04815366864204407,
        -0.6931461691856384,
        -1.1803258657455444
      ],
      "type": "VEC3",
      "byteOffset": 0
    },
    {
      "bufferView": 2,
      "byteOffset": 10704,
      "componentType": 5126,
      "count": 892,
      "max": [
        0.9882598519325256,
        1,
        0.9998389482498169
      ],
      "min": [
        -0.9935847520828247,
        -1,
        -0.9998389482498169
      ],
      "type": "VEC3"
    },
    {
      "bufferView": 3,
      "componentType": 5126,
      "count": 892,
      "max": [
        0.027090374380350113,
        1,
        0.16663241386413574,
        1
      ],
      "min": [
        -0.027090074494481087,
        0,
        -0.16663239896297455,
        -1
      ],
      "type": "VEC4",
      "byteOffset": 0
    },
    {
      "bufferView": 1,
      "componentType": 5126,
      "count": 892,
      "max": [
        1,
        1
      ],
      "min": [
        -1.862645149230957e-7,
        0
      ],
      "type": "VEC2",
      "byteOffset": 0
    },
    {
      "bufferView": 0,
      "componentType": 5125,
      "count": 3216,
      "max": [
        891
      ],
      "min": [
        0
      ],
      "type": "SCALAR",
      "byteOffset": 0
    },
    {
      "bufferView": 2,
      "byteOffset": 21408,
      "componentType": 5126,
      "count": 192,
      "max": [
        1.8541699647903442,
        0.6054866909980774,
        1.1218000650405884
      ],
      "min": [
        0.6560778617858887,
        -0.6068384051322937,
        -1.1218000650405884
      ],
      "type": "VEC3"
    },
    {
      "bufferView": 2,
      "byteOffset": 23712,
      "componentType": 5126,
      "count": 192,
      "max": [
        0.9013004899024963,
        0.826656699180603,
        0.6718994975090027
      ],
      "min": [
        -0.7326031923294067,
        -0.8266567587852478,
        -0.6718994975090027
      ],
      "type": "VEC3"
    },
    {
      "bufferView": 3,
      "byteOffset": 14272,
      "componentType": 5126,
      "count": 192,
      "max": [
        0,
        0,
        0,
        1
      ],
      "min": [
        0,
        0,
        0,
        1
      ],
      "type": "VEC4"
    },
    {
      "bufferView": 1,
      "byteOffset": 7136,
      "componentType": 5126,
      "count": 192,
      "max": [
        1,
        0
      ],
      "min": [
        -1.862645149230957e-7,
        0
      ],
      "type": "VEC2"
    },
    {
      "bufferView": 0,
      "byteOffset": 12864,
      "componentType": 5125,
      "count": 288,
      "max": [
        191
      ],
      "min": [
        0
      ],
      "type": "SCALAR"
    },
    {
      "bufferView": 2,
      "byteOffset": 26016,
      "componentType": 5126,
      "count": 916,
      "max": [
        1.8541699647903442,
        0.6054866909980774,
        1.0993486642837524
      ],
      "min": [
        -1,
        -0.6068384051322937,
        -1.0993486642837524
      ],
      "type": "VEC3"
    },
    {
      "bufferView": 2,
      "byteOffset": 37008,
      "componentType": 5126,
      "count": 916,
      "max": [
        0.9914483428001404,
        1,
        1
      ],
      "min": [
        -0.9999660849571228,
        -1,
        -1
      ],
      "type": "VEC3"
    },
    {
      "bufferView": 3,
      "byteOffset": 17344,
      "componentType": 5126,
      "count": 916,
      "max": [
        1,
        0.991445004940033,
        0.9914483428001404,
        1
      ],
      "min": [
        -1,
        -0.9914448857307434,
        -0.9914483428001404,
        -1
      ],
      "type": "VEC4"
    },
    {
      "bufferView": 1,
      "byteOffset": 8672,
      "componentType": 5126,
      "count": 916,
      "max": [
        1,
        1
      ],
      "min": [
        -1.862645149230957e-7,
        0
      ],
      "type": "VEC2"
    },
    {
      "bufferView": 0,
      "byteOffset": 14016,
      "componentType": 5125,
      "count": 1416,
      "max": [
        915
      ],
      "min": [
        0
      ],
      "type": "SCALAR"
    },
    {
      "bufferView": 2,
      "byteOffset": 48000,
      "componentType": 5126,
      "count": 48,
      "max": [
        1.6354740858078003,
        0.3657965064048767,
        1.1803258657455444
      ],
      "min": [
        0.9111342430114746,
        -0.3671482801437378,
        -1.1803258657455444
      ],
      "type": "VEC3"
    },
    {
      "bufferView": 2,
      "byteOffset": 48576,
      "componentType": 5126,
      "count": 48,
      "max": [
        0.15278244018554688,
        2.1657689330822905e-7,
        0.9882598519325256
      ],
      "min": [
        0.1527824103832245,
        0,
        -0.9882599115371704
      ],
      "type": "VEC3"
    },
    {
      "bufferView": 3,
      "byteOffset": 32000,
      "componentType": 5126,
      "count": 48,
      "max": [
        0.0000039654355532547925,
        1,
        0.0000011709241789503722,
        1
      ],
      "min": [
        -0.000007607111911056563,
        1,
        -9.568901759848814e-7,
        -1
      ],
      "type": "VEC4"
    },
    {
      "bufferView": 1,
      "byteOffset": 16000,
      "componentType": 5126,
      "count": 48,
      "max": [
        0.49000000953674316,
        0.9900000095367432
      ],
      "min": [
        0.01000000536441803,
        0.5099999904632568
      ],
      "type": "VEC2"
    },
    {
      "bufferView": 0,
      "byteOffset": 19680,
      "componentType": 5125,
      "count": 132,
      "max": [
        47
      ],
      "min": [
        0
      ],
      "type": "SCALAR"
    }
  ],
  "asset": {
    "extras": {
      "author": "Jean Nshuti (https://sketchfab.com/2nchy)",
      "license": "CC-BY-4.0 (http://creativecommons.org/licenses/by/4.0/)",
      "source": "https://sketchfab.com/3d-models/glowing-headphones-47e722ba850c4831bf9b60e7e24dd461",
      "title": "Glowing Headphones"
    },
    "generator": "Sketchfab-6.92.0",
    "version": "2.0"
  },
  "bufferViews": [
    {
      "buffer": 0,
      "byteLength": 20208,
      "byteOffset": 0,
      "name": "floatBufferViews",
      "target": 34963
    },
    {
      "buffer": 0,
      "byteLength": 16384,
      "byteOffset": 20208,
      "byteStride": 8,
      "name": "floatBufferViews",
      "target": 34962
    },
    {
      "buffer": 0,
      "byteLength": 49152,
      "byteOffset": 36592,
      "byteStride": 12,
      "name": "floatBufferViews",
      "target": 34962
    },
    {
      "buffer": 0,
      "byteLength": 32768,
      "byteOffset": 85744,
      "byteStride": 16,
      "name": "floatBufferViews",
      "target": 34962
    }
  ],
  "buffers": [
    {
      "name": "GlowingHeadphones",
      "byteLength": 118512,
      "uri": "data:application/octet-stream;base64,"
    }
  ],
  "materials": [
    {
      "doubleSided": false,
      "emissiveFactor": [
        0,
        0,
        0
      ],
      "name": "Material.001",
      "pbrMetallicRoughness": {
        "baseColorFactor": [
          0.0800116,
          0.0800116,
          0.0800116,
          1
        ],
        "metallicFactor": 0,
        "roughnessFactor": 0.5
      },
      "alphaMode": "OPAQUE"
    },
    {
      "doubleSided": false,
      "emissiveFactor": [
        1,
        0.791333,
        0.0365127
      ],
      "name": "Material.002",
      "pbrMetallicRoughness": {
        "baseColorFactor": [
          1,
          1,
          1,
          1
        ],
        "metallicFactor": 1,
        "roughnessFactor": 1
      },
      "alphaMode": "OPAQUE"
    },
    {
      "doubleSided": false,
      "emissiveFactor": [
        0,
        0,
        0
      ],
      "name": "Material.003",
      "pbrMetallicRoughness": {
        "baseColorFactor": [
          0,
          0,
          0,
          1
        ],
        "metallicFactor": 0.5443978658536586,
        "roughnessFactor": 0.27877286585365857
      },
      "alphaMode": "OPAQUE"
    },
    {
      "doubleSided": false,
      "emissiveFactor": [
        1,
        1,
        1
      ],
      "name": "Material.004",
      "pbrMetallicRoughness": {
        "baseColorFactor": [
          1,
          1,
          1,
          1
        ],
        "metallicFactor": 1,
        "roughnessFactor": 1
      },
      "alphaMode": "OPAQUE"
    }
  ],
  "meshes": [
    {
      "primitives": [
        {
          "attributes": {
            "NORMAL": 1,
            "POSITION": 0,
            "TANGENT": 2,
            "TEXCOORD_0": 3
          },
          "indices": 4,
          "material": 0,
          "mode": 4
        }
      ]
    },
    {
      "primitives": [
        {
          "attributes": {
            "NORMAL": 6,
            "POSITION": 5,
            "TANGENT": 7,
            "TEXCOORD_0": 8
          },
          "indices": 9,
          "material": 1,
          "mode": 4
        }
      ]
    },
    {
      "primitives": [
        {
          "attributes": {
            "NORMAL": 11,
            "POSITION": 10,
            "TANGENT": 12,
            "TEXCOORD_0": 13
          },
          "indices": 14,
          "material": 2,
          "mode": 4
        }
      ]
    },
    {
      "primitives": [
        {
          "attributes": {
            "NORMAL": 16,
            "POSITION": 15,
            "TANGENT": 17,
            "TEXCOORD_0": 18
          },
          "indices": 19,
          "material": 3,
          "mode": 4
        }
      ]
    }
  ],
  "nodes": [
    {
      "children": [
        1
      ],
      "name": "RootNode (gltf orientation matrix)",
      "rotation": [
        -0.7071067811865475,
        0,
        0,
        0.7071067811865476
      ],
      "translation": [
        0,
        0,
        0
      ],
      "scale": [
        1,
        1,
        1
      ]
    },
    {
      "children": [
        2
      ],
      "name": "RootNode (model correction matrix)"
    },
    {
      "children": [
        3
      ],
      "name": "root"
    },
    {
      "children": [
        4
      ],
      "matrix": [
        1,
        0,
        0,
        0,
        0,
        2.220446049250313e-16,
        1,
        0,
        0,
        -1,
        2.220446049250313e-16,
        0,
        0,
        0,
        0,
        1
      ],
      "name": "GLTF_SceneRootNode"
    },
    {
      "children": [
        5,
        6,
        7,
        8
      ],
      "matrix": [
        0,
        -1,
        0,
        0,
        1,
        0,
        0,
        0,
        0,
        0,
        1,
        0,
        0,
        0,
        0,
        1
      ],
      "name": "Cylinder_0"
    },
    {
      "mesh": 0,
      "name": ""
    },
    {
      "mesh": 1,
      "name": ""
    },
    {
      "mesh": 2,
      "name": ""
    },
    {
      "mesh": 3,
      "name": ""
    }
  ],
  "scene": 0,
  "scenes": [
    {
      "name": "OSG_Scene",
      "nodes": [
        0
      ]
    }
  ]
}
