{
  "accessors": [
    {
      "bufferView": 2,
      "componentType": 5126,
      "count": 336,
      "max": [
        143.2700653076172,
        179.8269500732422,
        116.9974136352539
      ],
      "min": [
        123.4242172241211,
        120.80628204345703,
        116.90815734863281
      ],
      "type": "VEC3",
      "byteOffset": 0
    },
    {
      "bufferView": 2,
      "byteOffset": 4032,
      "componentType": 5126,
      "count": 336,
      "max": [
        0.9991751909255981,
        0.9991746544837952,
        1
      ],
      "min": [
        -0.9991821646690369,
        -0.9991746544837952,
        -1
      ],
      "type": "VEC3"
    },
    {
      "bufferView": 1,
      "componentType": 5126,
      "count": 336,
      "max": [
        4.001152038574219,
        -4.007942199707031
      ],
      "min": [
        3.0022170543670654,
        -4.992057800292969
      ],
      "type": "VEC2",
      "byteOffset": 0
    },
    {
      "bufferView": 0,
      "componentType": 5125,
      "count": 1476,
      "max": [
        335
      ],
      "min": [
        0
      ],
      "type": "SCALAR",
      "byteOffset": 0
    },
    {
      "bufferView": 2,
      "byteOffset": 8064,
      "componentType": 5126,
      "count": 1558,
      "max": [
        157.02410888671875,
        183.62774658203125,
        157.303466796875
      ],
      "min": [
        110.34861755371094,
        116.85941314697266,
        115.23828125
      ],
      "type": "VEC3"
    },
    {
      "bufferView": 2,
      "byteOffset": 26760,
      "componentType": 5126,
      "count": 1558,
      "max": [
        0.9999968409538269,
        1,
        1
      ],
      "min": [
        -0.9999968409538269,
        -1,
        -0.9999996423721313
      ],
      "type": "VEC3"
    },
    {
      "bufferView": 1,
      "byteOffset": 2688,
      "componentType": 5126,
      "count": 1558,
      "max": [
        1,
        1
      ],
      "min": [
        0,
        0
      ],
      "type": "VEC2"
    },
    {
      "bufferView": 0,
      "byteOffset": 5904,
      "componentType": 5125,
      "count": 6378,
      "max": [
        1557
      ],
      "min": [
        0
      ],
      "type": "SCALAR"
    },
    {
      "bufferView": 2,
      "byteOffset": 45456,
      "componentType": 5126,
      "count": 4328,
      "max": [
        121.34552764892578,
        178.73696899414062,
        155.8911590576172
      ],
      "min": [
        111.27073669433594,
        123.93912506103516,
        116.43071746826172
      ],
      "type": "VEC3"
    },
    {
      "bufferView": 2,
      "byteOffset": 97392,
      "componentType": 5126,
      "count": 4328,
      "max": [
        0.9998728632926941,
        1,
        1
      ],
      "min": [
        -0.9995750784873962,
        -1,
        -1
      ],
      "type": "VEC3"
    },
    {
      "bufferView": 1,
      "byteOffset": 15152,
      "componentType": 5126,
      "count": 4328,
      "max": [
        1,
        1
      ],
      "min": [
        0,
        0
      ],
      "type": "VEC2"
    },
    {
      "bufferView": 0,
      "byteOffset": 31416,
      "componentType": 5125,
      "count": 21720,
      "max": [
        4327
      ],
      "min": [
        0
      ],
      "type": "SCALAR"
    },
    {
      "bufferView": 2,
      "byteOffset": 149328,
      "componentType": 5126,
      "count": 172,
      "max": [
        116.2494125366211,
        179.47482299804688,
        155.70594787597656
      ],
      "min": [
        110.91609191894531,
        120.33209991455078,
        119.88768768310547
      ],
      "type": "VEC3"
    },
    {
      "bufferView": 2,
      "byteOffset": 151392,
      "componentType": 5126,
      "count": 172,
      "max": [
        0.9940304756164551,
        1,
        0.9936070442199707
      ],
      "min": [
        -0.9940299987792969,
        -1,
        -0.9936061501502991
      ],
      "type": "VEC3"
    },
    {
      "bufferView": 1,
      "byteOffset": 49776,
      "componentType": 5126,
      "count": 172,
      "max": [
        1,
        1
      ],
      "min": [
        0,
        0
      ],
      "type": "VEC2"
    },
    {
      "bufferView": 0,
      "byteOffset": 118296,
      "componentType": 5125,
      "count": 468,
      "max": [
        171
      ],
      "min": [
        0
      ],
      "type": "SCALAR"
    }
  ],
  "asset": {
    "extras": {
      "author": "ioannapnl (https://sketchfab.com/ioannapnl)",
      "license": "CC-BY-4.0 (http://creativecommons.org/licenses/by/4.0/)",
      "source": "https://sketchfab.com/3d-models/laptop-9b45e7a38db844bd939dbc0d5ea19737",
      "title": "Laptop"
    },
    "generator": "Sketchfab-7.95.0",
    "version": "2.0"
  },
  "bufferViews": [
    {
      "buffer": 0,
      "byteLength": 120168,
      "byteOffset": 0,
      "name": "floatBufferViews",
      "target": 34963
    },
    {
      "buffer": 0,
      "byteLength": 51152,
      "byteOffset": 120168,
      "byteStride": 8,
      "name": "floatBufferViews",
      "target": 34962
    },
    {
      "buffer": 0,
      "byteLength": 153456,
      "byteOffset": 171320,
      "byteStride": 12,
      "name": "floatBufferViews",
      "target": 34962
    },
    {
      "buffer": 0,
      "byteOffset": 324776,
      "byteLength": 209492
    }
  ],
  "buffers": [
    {
      "name": "WhiteLaptop",
      "byteLength": 534272,
      "uri": "data:application/octet-stream;base64,"
    }
  ],
  "images": [
    {
      "name": "material_baseColor",
      "bufferView": 3,
      "mimeType": "image/jpeg"
    }
  ],
  "materials": [
    {
      "doubleSided": true,
      "name": "material",
      "pbrMetallicRoughness": {
        "baseColorFactor": [
          1,
          1,
          1,
          1
        ],
        "baseColorTexture": {
          "index": 0,
          "texCoord": 0
        },
        "metallicFactor": 0,
        "roughnessFactor": 0.8004954268292683
      },
      "emissiveFactor": [
        0,
        0,
        0
      ],
      "alphaMode": "OPAQUE"
    },
    {
      "doubleSided": true,
      "name": "Mat_1",
      "pbrMetallicRoughness": {
        "baseColorFactor": [
          0.7164603201407036,
          0.6811547916748979,
          0.6811547916748979,
          1
        ],
        "metallicFactor": 0.06878810975609756,
        "roughnessFactor": 0.3248856707317073
      },
      "emissiveFactor": [
        0,
        0,
        0
      ],
      "alphaMode": "OPAQUE"
    },
    {
      "doubleSided": true,
      "name": "Mat_2",
      "pbrMetallicRoughness": {
        "baseColorFactor": [
          0.6128662499164927,
          0.6128662499164927,
          0.6128662499164927,
          1
        ],
        "metallicFactor": 0.05659298780487805,
        "roughnessFactor": 0.9407393292682927
      },
      "emissiveFactor": [
        0,
        0,
        0
      ],
      "alphaMode": "OPAQUE"
    },
    {
      "doubleSided": true,
      "name": "Mat_3",
      "pbrMetallicRoughness": {
        "baseColorFactor": [
          0.004327946833374553,
          0.004166616484397923,
          0.004166616484397923,
          1
        ],
        "metallicFactor": 0.7943978658536586,
        "roughnessFactor": 0.1480564024390244
      },
      "emissiveFactor": [
        0,
        0,
        0
      ],
      "alphaMode": "OPAQUE"
    }
  ],
  "meshes": [
    {
      "primitives": [
        {
          "attributes": {
            "NORMAL": 1,
            "POSITION": 0,
            "TEXCOORD_0": 2
          },
          "indices": 3,
          "material": 0,
          "mode": 4
        }
      ]
    },
    {
      "primitives": [
        {
          "attributes": {
            "NORMAL": 5,
            "POSITION": 4,
            "TEXCOORD_0": 6
          },
          "indices": 7,
          "material": 1,
          "mode": 4
        }
      ]
    },
    {
      "primitives": [
        {
          "attributes": {
            "NORMAL": 9,
            "POSITION": 8,
            "TEXCOORD_0": 10
          },
          "indices": 11,
          "material": 2,
          "mode": 4
        }
      ]
    },
    {
      "primitives": [
        {
          "attributes": {
            "NORMAL": 13,
            "POSITION": 12,
            "TEXCOORD_0": 14
          },
          "indices": 15,
          "material": 3,
          "mode": 4
        }
      ]
    }
  ],
  "nodes": [
    {
      "children": [
        1
      ],
      "name": "RootNode (gltf orientation matrix)",
      "rotation": [
        -0.7071067811865475,
        0,
        0,
        0.7071067811865476
      ],
      "translation": [
        0,
        0,
        0
      ],
      "scale": [
        1,
        1,
        1
      ]
    },
    {
      "children": [
        2
      ],
      "name": "RootNode (model correction matrix)"
    },
    {
      "children": [
        3,
        4,
        5,
        6
      ],
      "name": "end.obj.cleaner.materialmerger.gles"
    },
    {
      "mesh": 0,
      "name": ""
    },
    {
      "mesh": 1,
      "name": ""
    },
    {
      "mesh": 2,
      "name": ""
    },
    {
      "mesh": 3,
      "name": ""
    }
  ],
  "samplers": [
    {
      "magFilter": 9729,
      "minFilter": 9987,
      "wrapS": 10497,
      "wrapT": 10497
    }
  ],
  "scene": 0,
  "scenes": [
    {
      "name": "OSG_Scene",
      "nodes": [
        0
      ]
    }
  ],
  "textures": [
    {
      "sampler": 0,
      "source": 0
    }
  ]
}
